<?xml version="1.0" encoding="utf-8"?>
<!-- Generator: Adobe Illustrator 16.0.0, SVG Export Plug-In . SVG Version: 6.00 Build 0)  -->
<!DOCTYPE svg PUBLIC "-//W3C//DTD SVG 1.1//EN" "http://www.w3.org/Graphics/SVG/1.1/DTD/svg11.dtd">
<svg version="1.1" id="Layer_1" xmlns="http://www.w3.org/2000/svg" xmlns:xlink="http://www.w3.org/1999/xlink" x="0px" y="0px"
	 width="390.462px" height="156.434px" viewBox="0 0 390.462 156.434" enable-background="new 0 0 390.462 156.434"
	 xml:space="preserve">
<g>
	<g>
		<g>
			<path fill="#0066B3" d="M166.644,110.558c1.951,1.68,2.927,4.15,2.927,7.413c0,3.199-0.968,5.646-2.902,7.341
				c-1.936,1.695-4.758,2.543-8.469,2.543h-9.979v13.29h-4.366v-33.105H158.2C161.878,108.039,164.693,108.879,166.644,110.558z
				 M163.526,122.553c1.119-0.943,1.68-2.454,1.68-4.534c0-2.175-0.576-3.734-1.728-4.678s-2.975-1.416-5.47-1.416h-9.788v12.043
				h10.076C160.663,123.968,162.406,123.496,163.526,122.553z"/>
			<path fill="#0066B3" d="M182.141,111.925v10.46h16.073v3.887h-16.073v10.986h18.76v3.887h-23.126v-33.105h23.126v3.886H182.141z"
				/>
			<path fill="#0066B3" d="M212.823,137.906c-2.383-2.447-3.574-6.085-3.574-10.916v-4.846c0-4.829,1.207-8.468,3.622-10.915
				s5.83-3.67,10.244-3.67c4.382,0,7.764,1.223,10.147,3.67c2.382,2.447,3.574,6.086,3.574,10.915v4.846
				c0,4.831-1.208,8.469-3.622,10.916c-2.416,2.446-5.83,3.67-10.244,3.67C218.588,141.576,215.206,140.353,212.823,137.906z
				 M230.167,135.051c1.566-1.727,2.351-4.397,2.351-8.012v-4.654c0-3.742-0.784-6.493-2.351-8.253
				c-1.567-1.758-3.935-2.639-7.101-2.639c-3.199,0-5.574,0.881-7.125,2.639c-1.552,1.76-2.327,4.511-2.327,8.253v4.654
				c0,3.614,0.775,6.285,2.327,8.012c1.551,1.728,3.926,2.591,7.125,2.591C226.233,137.642,228.6,136.778,230.167,135.051z"/>
			<path fill="#0066B3" d="M269.269,110.558c1.951,1.68,2.927,4.15,2.927,7.413c0,3.199-0.968,5.646-2.902,7.341
				c-1.936,1.695-4.758,2.543-8.469,2.543h-9.979v13.29h-4.366v-33.105h14.346C264.503,108.039,267.318,108.879,269.269,110.558z
				 M266.151,122.553c1.119-0.943,1.68-2.454,1.68-4.534c0-2.175-0.576-3.734-1.728-4.678s-2.975-1.416-5.47-1.416h-9.788v12.043
				h10.076C263.288,123.968,265.031,123.496,266.151,122.553z"/>
			<path fill="#0066B3" d="M280.401,108.039h4.366v29.219h18.568v3.887h-22.935V108.039z"/>
			<path fill="#0066B3" d="M315.905,111.925v10.46h16.073v3.887h-16.073v10.986h18.76v3.887h-23.126v-33.105h23.126v3.886H315.905z"
				/>
		</g>
	</g>
	<g>
		<g>
			<path fill="#0066B3" d="M168.348,81.073c0.942,1.327,1.415,2.998,1.415,5.014c0,3.007-0.944,5.294-2.831,6.861
				c-1.888,1.567-4.638,2.351-8.252,2.351h-14.826V62.193h14.538c3.519,0,6.197,0.752,8.036,2.255
				c1.839,1.504,2.759,3.711,2.759,6.621c0,1.695-0.432,3.167-1.295,4.414s-2.096,2.159-3.694,2.734
				C166.021,78.794,167.404,79.746,168.348,81.073z M148.22,66.031v10.412h10.172c2.175,0,3.798-0.424,4.87-1.271
				c1.071-0.848,1.607-2.151,1.607-3.91s-0.528-3.071-1.584-3.935c-1.056-0.864-2.655-1.296-4.798-1.296H148.22z M163.766,90.069
				c1.087-0.928,1.631-2.352,1.631-4.271c0-3.678-2.303-5.518-6.909-5.518H148.22v11.18h10.556
				C161.014,91.461,162.678,90.997,163.766,90.069z"/>
			<path fill="#0066B3" d="M182.884,92.396c-2.319-2.127-3.479-5.11-3.479-8.948V62.193h4.366V83.16c0,5.726,2.927,8.588,8.78,8.588
				s8.78-2.862,8.78-8.588V62.193h4.366v21.255c0,3.838-1.16,6.821-3.479,8.948c-2.319,2.127-5.542,3.19-9.668,3.19
				S185.204,94.523,182.884,92.396z"/>
			<path fill="#0066B3" d="M217.597,93.092c-2.176-1.663-3.375-4.109-3.599-7.341h4.223c0.191,2.144,1.015,3.694,2.471,4.654
				c1.455,0.959,3.558,1.439,6.309,1.439c5.693,0,8.541-1.903,8.541-5.71c0-1.663-0.545-2.942-1.632-3.838
				c-1.088-0.896-2.767-1.472-5.037-1.728l-4.463-0.528c-6.429-0.799-9.644-3.758-9.644-8.876c0-2.975,1.087-5.285,3.263-6.933
				c2.175-1.647,5.149-2.471,8.924-2.471c3.678,0,6.565,0.791,8.66,2.375c2.095,1.583,3.303,3.927,3.623,7.028h-4.223
				c-0.16-1.919-0.896-3.35-2.207-4.294c-1.312-0.943-3.263-1.415-5.854-1.415c-2.623,0-4.605,0.464-5.949,1.392
				s-2.015,2.271-2.015,4.03c0,1.535,0.52,2.734,1.559,3.598c1.039,0.864,2.663,1.439,4.87,1.728l4.654,0.527
				c6.525,0.864,9.787,3.903,9.787,9.116c0,3.104-1.151,5.502-3.454,7.197s-5.502,2.543-9.596,2.543
				C222.842,95.587,219.772,94.755,217.597,93.092z"/>
			<path fill="#0066B3" d="M248.974,62.193h4.366v33.105h-4.366V62.193z"/>
			<path fill="#0066B3" d="M291.628,62.193v33.105h-4.366L268.31,69.678v25.621h-4.366V62.193h4.366l18.952,25.669V62.193H291.628z"
				/>
			<path fill="#0066B3" d="M306.261,66.079v10.46h16.073v3.887h-16.073v10.986h18.76v3.887h-23.126V62.193h23.126v3.886H306.261z"/>
			<path fill="#0066B3" d="M335.528,93.092c-2.176-1.663-3.375-4.109-3.599-7.341h4.223c0.191,2.144,1.015,3.694,2.471,4.654
				c1.455,0.959,3.558,1.439,6.309,1.439c5.693,0,8.541-1.903,8.541-5.71c0-1.663-0.545-2.942-1.632-3.838
				c-1.088-0.896-2.767-1.472-5.037-1.728l-4.463-0.528c-6.429-0.799-9.644-3.758-9.644-8.876c0-2.975,1.087-5.285,3.263-6.933
				c2.175-1.647,5.149-2.471,8.924-2.471c3.678,0,6.565,0.791,8.66,2.375c2.095,1.583,3.303,3.927,3.623,7.028h-4.223
				c-0.16-1.919-0.896-3.35-2.207-4.294c-1.312-0.943-3.263-1.415-5.854-1.415c-2.623,0-4.605,0.464-5.949,1.392
				s-2.015,2.271-2.015,4.03c0,1.535,0.52,2.734,1.559,3.598c1.039,0.864,2.663,1.439,4.87,1.728l4.654,0.527
				c6.525,0.864,9.787,3.903,9.787,9.116c0,3.104-1.151,5.502-3.454,7.197s-5.502,2.543-9.596,2.543
				C340.773,95.587,337.703,94.755,335.528,93.092z"/>
			<path fill="#0066B3" d="M368.201,93.092c-2.176-1.663-3.375-4.109-3.599-7.341h4.223c0.191,2.144,1.015,3.694,2.471,4.654
				c1.455,0.959,3.558,1.439,6.309,1.439c5.693,0,8.541-1.903,8.541-5.71c0-1.663-0.545-2.942-1.632-3.838
				c-1.088-0.896-2.767-1.472-5.037-1.728l-4.463-0.528c-6.429-0.799-9.644-3.758-9.644-8.876c0-2.975,1.087-5.285,3.263-6.933
				c2.175-1.647,5.149-2.471,8.924-2.471c3.678,0,6.565,0.791,8.66,2.375c2.095,1.583,3.303,3.927,3.623,7.028h-4.223
				c-0.16-1.919-0.896-3.35-2.207-4.294c-1.312-0.943-3.263-1.415-5.854-1.415c-2.623,0-4.605,0.464-5.949,1.392
				s-2.015,2.271-2.015,4.03c0,1.535,0.52,2.734,1.559,3.598c1.039,0.864,2.663,1.439,4.87,1.728l4.654,0.527
				c6.525,0.864,9.787,3.903,9.787,9.116c0,3.104-1.151,5.502-3.454,7.197s-5.502,2.543-9.596,2.543
				C373.446,95.587,370.375,94.755,368.201,93.092z"/>
		</g>
	</g>
	<g>
		<g>
			<g>
				<linearGradient id="SVGID_1_" gradientUnits="userSpaceOnUse" x1="0" y1="78.2168" x2="125.3052" y2="78.2168">
					<stop  offset="0" style="stop-color:#FD0039"/>
					<stop  offset="0.3255" style="stop-color:#6C3A7F"/>
					<stop  offset="0.5789" style="stop-color:#0066B3"/>
					<stop  offset="1" style="stop-color:#00C2F6"/>
				</linearGradient>
				<path fill="url(#SVGID_1_)" d="M39.525,156.434c-14.709,0-33.174-1.48-37.599-8.542c-5.842-9.317,12.633-21.978,32.191-35.384
					c17.972-12.316,36.555-25.053,36.555-35.229c0-13.754-21.709-26.999-40.864-38.684C11.792,27.604-3.766,18.113,0.807,9.719
					C5.549,1.006,24.47,0,38.29,0l4.307,0.014c78.721,0.189,82.709,66.232,82.709,79.471c0,46.622-29.988,76.748-76.399,76.748
					l-0.566-0.002C48.346,156.23,44.695,156.434,39.525,156.434z M38.29,1.453c-13.449,0-31.834,0.928-36.208,8.961
					c-3.911,7.181,11.825,16.777,28.483,26.94c19.479,11.886,41.56,25.355,41.56,39.925c0,10.941-18.904,23.896-37.186,36.428
					C16.805,126.133-1.945,138.982,3.156,147.12c3.132,4.996,16.388,7.86,36.369,7.86c5.125,0,8.74-0.197,8.776-0.199h0.604
					c45.528,0,74.947-29.557,74.947-75.297c0-12.996-3.918-77.833-81.261-78.019L38.29,1.453z"/>
			</g>
			<g>
				<linearGradient id="SVGID_2_" gradientUnits="userSpaceOnUse" x1="3.1362" y1="78.4863" x2="121.9038" y2="78.4863">
					<stop  offset="0" style="stop-color:#FD0039"/>
					<stop  offset="0.3255" style="stop-color:#6C3A7F"/>
					<stop  offset="0.5789" style="stop-color:#0066B3"/>
					<stop  offset="1" style="stop-color:#00C2F6"/>
				</linearGradient>
				<path fill="url(#SVGID_2_)" d="M40.054,153.691c-13.754,0-31.008-1.371-35.095-7.895c-5.624-8.99,11.314-21.152,29.245-34.029
					C50.84,99.822,68.042,87.472,68.112,77.349c0.059-13.157-19.873-25.939-37.458-37.218C13.94,29.412-0.493,20.155,3.95,12.012
					c3.2-5.873,13.816-8.73,32.455-8.73c2.806,0,5.36,0.061,7.438,0.109l0.59,0.014c73.736,1.707,77.472,63.662,77.472,76.066
					c0,44.958-28.606,74.011-72.88,74.013h-0.208C48.823,153.483,45.167,153.691,40.054,153.691z M36.405,4.733
					c-17.807,0-28.297,2.684-31.181,7.976c-3.795,6.953,10.781,16.303,26.214,26.198c17.901,11.48,38.188,24.491,38.126,38.451
					c-0.075,10.862-17.581,23.433-34.512,35.59c-16.598,11.919-33.762,24.243-28.861,32.076c2.87,4.584,15.214,7.215,33.863,7.215
					c5.068,0,8.686-0.204,8.722-0.206l0.248-0.002c43.391-0.002,71.427-28.483,71.427-72.561c0-12.166-3.666-72.938-76.053-74.614
					l-0.59-0.013C41.741,4.794,39.198,4.733,36.405,4.733z"/>
			</g>
			<g>
				<linearGradient id="SVGID_3_" gradientUnits="userSpaceOnUse" x1="6.2686" y1="78.7334" x2="118.5034" y2="78.7334">
					<stop  offset="0" style="stop-color:#FD0039"/>
					<stop  offset="0.3255" style="stop-color:#6C3A7F"/>
					<stop  offset="0.5789" style="stop-color:#0066B3"/>
					<stop  offset="1" style="stop-color:#00C2F6"/>
				</linearGradient>
				<path fill="url(#SVGID_3_)" d="M40.573,150.949c-12.794,0-28.83-1.258-32.58-7.248c-5.404-8.66,10.01-20.324,26.33-32.67
					C49.618,99.457,65.434,87.49,65.551,77.419c0.146-12.566-18.025-24.887-34.058-35.757C16.086,31.217,2.779,22.193,7.091,14.309
					c2.857-5.242,12.218-7.791,28.613-7.791c3.915,0,7.504,0.145,10.562,0.279c25.376,1.131,44.671,10.033,57.347,26.467
					c12.956,16.797,14.891,36.152,14.891,46.193c0,43.234-27.165,71.213-69.208,71.279
					C49.299,150.736,45.634,150.949,40.573,150.949z M35.705,7.969c-15.596,0-24.794,2.368-27.339,7.035
					c-3.679,6.729,9.738,15.824,23.942,25.456c16.335,11.075,34.851,23.629,34.695,36.974c-0.126,10.787-16.23,22.971-31.804,34.754
					c-15.775,11.938-30.677,23.211-25.974,30.744c2.649,4.232,13.782,6.565,31.347,6.565c5.017,0,8.642-0.21,8.678-0.212
					c41.204-0.068,67.801-27.475,67.801-69.828c0-32.9-18.612-68.884-70.85-71.208C43.162,8.113,39.589,7.969,35.705,7.969z"/>
			</g>
			<g>
				<linearGradient id="SVGID_4_" gradientUnits="userSpaceOnUse" x1="9.3989" y1="78.959" x2="115.103" y2="78.959">
					<stop  offset="0" style="stop-color:#FD0039"/>
					<stop  offset="0.3255" style="stop-color:#6C3A7F"/>
					<stop  offset="0.5789" style="stop-color:#0066B3"/>
					<stop  offset="1" style="stop-color:#00C2F6"/>
				</linearGradient>
				<path fill="url(#SVGID_4_)" d="M41.081,148.209c-11.826,0-26.639-1.146-30.055-6.604c-5.19-8.336,8.726-19.516,23.459-31.35
					C48.411,99.07,62.811,87.502,62.991,77.488c0.214-11.97-16.195-23.823-30.673-34.281C18.223,33.027,6.052,24.234,10.234,16.6
					c2.496-4.572,10.979-6.891,25.218-6.891c4.82,0,9.292,0.258,12.65,0.48c49.401,3.289,67.001,37.93,67.001,69.253
					c0,41.413-25.645,68.318-65.333,68.548C49.774,147.99,46.092,148.209,41.081,148.209z M35.452,11.162
					c-13.473,0-21.753,2.121-23.943,6.136c-3.566,6.511,8.688,15.361,21.66,24.733C47.934,52.697,64.67,64.787,64.443,77.516
					c-0.192,10.693-14.861,22.477-29.049,33.873c-14.217,11.42-27.646,22.207-23.135,29.447c2.389,3.818,12.623,5.921,28.821,5.921
					c4.968,0,8.606-0.216,8.643-0.218c39.447-0.229,63.928-25.938,63.928-67.097c0-30.665-17.245-64.582-65.645-67.805
					C44.67,11.416,40.228,11.162,35.452,11.162z"/>
			</g>
			<g>
				<linearGradient id="SVGID_5_" gradientUnits="userSpaceOnUse" x1="12.5249" y1="79.166" x2="111.7026" y2="79.166">
					<stop  offset="0" style="stop-color:#FD0039"/>
					<stop  offset="0.3255" style="stop-color:#6C3A7F"/>
					<stop  offset="0.5789" style="stop-color:#0066B3"/>
					<stop  offset="1" style="stop-color:#00C2F6"/>
				</linearGradient>
				<path fill="url(#SVGID_5_)" d="M41.555,145.471c-10.843,0-24.415-1.034-27.492-5.963c-4.98-8.016,7.457-18.721,20.624-30.055
					C47.225,98.665,60.188,87.508,60.43,77.561c0.278-11.373-14.374-22.754-27.301-32.795c-12.772-9.92-23.804-18.488-19.753-25.871
					c2.188-4.002,9.616-6.033,22.077-6.033c4.285,0,9.158,0.242,14.487,0.723c45.588,4.09,61.762,38.027,61.762,65.848
					c0,40.201-23.547,65.419-61.452,65.811C50.25,145.242,46.529,145.471,41.555,145.471z M35.454,14.314
					c-11.722,0-18.915,1.824-20.803,5.277c-3.456,6.297,7.631,14.909,19.369,24.027C47.219,53.871,62.178,65.49,61.882,77.595
					c-0.259,10.594-13.47,21.965-26.248,32.96c-12.683,10.916-24.663,21.227-20.338,28.186c2.123,3.402,11.45,5.278,26.259,5.278
					c4.927,0,8.606-0.226,8.643-0.228c37.056-0.383,60.053-25.045,60.053-64.359c0-28.512-15.877-60.403-60.438-64.402
					C44.525,14.555,39.695,14.314,35.454,14.314z"/>
			</g>
			<g>
				<linearGradient id="SVGID_6_" gradientUnits="userSpaceOnUse" x1="15.646" y1="79.3535" x2="108.3032" y2="79.3535">
					<stop  offset="0" style="stop-color:#FD0039"/>
					<stop  offset="0.3255" style="stop-color:#6C3A7F"/>
					<stop  offset="0.5789" style="stop-color:#0066B3"/>
					<stop  offset="1" style="stop-color:#00C2F6"/>
				</linearGradient>
				<path fill="url(#SVGID_6_)" d="M42.005,142.732c-14.326,0-22.708-1.789-24.909-5.319c-4.774-7.704,6.209-17.95,17.837-28.8
					C45.541,98.718,57.564,87.5,57.872,77.631c0.339-10.77-12.564-21.672-23.946-31.29C22.48,36.67,12.596,28.318,16.522,21.188
					c1.893-3.459,8.332-5.213,19.138-5.213c6.057,0,12.11,0.546,16.121,1.002c41.719,4.76,56.522,36.611,56.522,62.441
					c0,38.356-22.062,62.525-57.574,63.076C50.727,142.494,46.947,142.732,42.005,142.732z M35.66,17.426
					c-10.091,0-16.27,1.544-17.865,4.46c-3.353,6.091,6.565,14.472,17.066,23.345c11.636,9.83,24.822,20.975,24.463,32.445
					c-0.329,10.475-12.057,21.416-23.399,31.999c-11.181,10.431-21.74,20.284-17.595,26.972c1.836,2.945,10.467,4.634,23.676,4.634
					c4.893,0,8.629-0.234,8.665-0.236c34.667-0.537,56.18-24.151,56.18-61.626c0-25.232-14.466-56.347-55.236-60.996
					C47.641,17.967,41.648,17.426,35.66,17.426z"/>
			</g>
			<g>
				<linearGradient id="SVGID_7_" gradientUnits="userSpaceOnUse" x1="18.7559" y1="79.5205" x2="104.9028" y2="79.5205">
					<stop  offset="0" style="stop-color:#FD0039"/>
					<stop  offset="0.3255" style="stop-color:#6C3A7F"/>
					<stop  offset="0.5789" style="stop-color:#0066B3"/>
					<stop  offset="1" style="stop-color:#00C2F6"/>
				</linearGradient>
				<path fill="url(#SVGID_7_)" d="M42.45,140c-12.876,0-20.386-1.575-22.32-4.682c-4.574-7.404,4.978-17.213,15.091-27.601
					c9.24-9.489,19.713-20.244,20.089-30.019c0.394-10.165-10.768-20.581-20.616-29.77c-10.102-9.428-18.827-17.568-15.03-24.447
					c1.615-2.947,7.131-4.441,16.392-4.441c7.296,0,14.715,0.93,17.564,1.328c31.153,4.361,51.284,27.533,51.284,59.035
					c0,36.514-20.575,59.635-53.695,60.344C51.202,139.75,47.354,140,42.45,140z M36.054,20.494c-8.445,0-13.814,1.309-15.119,3.689
					c-3.25,5.889,5.492,14.047,14.749,22.684c10.075,9.402,21.495,20.059,21.078,30.889c-0.399,10.332-10.619,20.826-20.5,30.975
					c-9.707,9.969-18.876,19.387-14.897,25.821c1.581,2.54,9.267,3.996,21.085,3.996c4.854,0,8.658-0.248,8.695-0.25
					c32.275-0.69,52.306-23.257,52.306-58.894c0-30.733-19.639-53.344-50.032-57.598C50.597,21.411,43.259,20.494,36.054,20.494z"/>
			</g>
			<g>
				<linearGradient id="SVGID_8_" gradientUnits="userSpaceOnUse" x1="21.8545" y1="79.666" x2="101.5024" y2="79.666">
					<stop  offset="0" style="stop-color:#FD0039"/>
					<stop  offset="0.3255" style="stop-color:#6C3A7F"/>
					<stop  offset="0.5789" style="stop-color:#0066B3"/>
					<stop  offset="1" style="stop-color:#00C2F6"/>
				</linearGradient>
				<path fill="url(#SVGID_8_)" d="M42.837,137.27c-11.386,0-18.005-1.361-19.673-4.047c-4.383-7.114,3.39-16.086,12.391-26.473
					c7.85-9.061,16.747-19.329,17.193-28.983c0.442-9.552-8.99-19.468-17.311-28.216C26.69,40.352,19.133,32.41,22.804,25.775
					c1.354-2.464,6-3.714,13.805-3.714c8.11,0,16.479,1.303,18.85,1.702c27.971,4.713,46.044,26.547,46.044,55.625
					c0,34.676-19.088,56.75-49.814,57.612C51.678,137.002,47.72,137.27,42.837,137.27z M36.609,23.514
					c-7.031,0-11.482,1.052-12.532,2.963c-3.156,5.704,4.406,13.654,12.413,22.071c8.522,8.96,18.181,19.114,17.712,29.287
					c-0.472,10.157-9.545,20.628-17.55,29.866c-8.266,9.54-16.074,18.553-12.252,24.758c1.325,2.133,8.047,3.357,18.438,3.357
					c4.834,0,8.741-0.264,8.78-0.266c29.885-0.84,48.433-22.358,48.433-56.162c0-28.332-17.599-49.604-44.834-54.191
					C52.874,24.802,44.606,23.514,36.609,23.514z"/>
			</g>
			<g>
				<linearGradient id="SVGID_9_" gradientUnits="userSpaceOnUse" x1="24.8691" y1="79.7861" x2="98.1021" y2="79.7861">
					<stop  offset="0" style="stop-color:#FD0039"/>
					<stop  offset="0.3255" style="stop-color:#6C3A7F"/>
					<stop  offset="0.5789" style="stop-color:#0066B3"/>
					<stop  offset="1" style="stop-color:#00C2F6"/>
				</linearGradient>
				<path fill="url(#SVGID_9_)" d="M43.174,134.547c-14.858,0-16.452-2.576-16.977-3.422c-4.203-6.85,2.257-15.475,9.735-25.461
					c6.439-8.598,13.739-18.342,14.257-27.827c0.488-8.934-7.231-18.334-14.041-26.628c-7.07-8.612-13.75-16.746-10.202-23.14
					c1.129-2.048,4.862-3.044,11.414-3.044c6.888,0,15.048,1.15,19.941,2.137c18.822,3.789,40.8,19.738,40.8,52.214
					c0,33.338-17.171,53.853-45.934,54.877C52.153,134.255,48.041,134.547,43.174,134.547z M37.361,26.477
					c-5.643,0-9.34,0.836-10.144,2.295c-3.069,5.533,3.306,13.296,10.053,21.516c6.979,8.499,14.889,18.133,14.369,27.629
					c-0.541,9.924-7.98,19.856-14.543,28.617c-7.163,9.565-13.349,17.824-9.661,23.83c0.507,0.818,3.06,2.73,15.739,2.73
					c4.811,0,8.875-0.287,8.915-0.291c27.912-0.994,44.561-20.967,44.561-53.427c0-31.598-21.35-47.108-39.635-50.792
					C52.187,27.611,44.143,26.477,37.361,26.477z"/>
			</g>
			<g>
				<linearGradient id="SVGID_10_" gradientUnits="userSpaceOnUse" x1="27.7944" y1="79.875" x2="94.7007" y2="79.875">
					<stop  offset="0" style="stop-color:#FD0039"/>
					<stop  offset="0.3255" style="stop-color:#6C3A7F"/>
					<stop  offset="0.5789" style="stop-color:#0066B3"/>
					<stop  offset="1" style="stop-color:#00C2F6"/>
				</linearGradient>
				<path fill="url(#SVGID_10_)" d="M43.465,131.828c-12.507,0-13.805-2.105-14.231-2.801c-4.051-6.622,1.125-14.973,7.119-24.643
					c5.01-8.084,10.69-17.246,11.276-26.48c0.526-8.294-5.499-17.153-10.813-24.969c-5.739-8.438-11.159-16.409-7.726-22.572
					c0.908-1.642,3.943-2.441,9.279-2.441c6.855,0,15.377,1.324,20.779,2.637c16.399,3.982,35.551,19.152,35.551,48.805
					c0,31.475-15.719,50.966-42.05,52.143C52.629,131.508,48.305,131.828,43.465,131.828z M38.371,29.375
					c-6.563,0-7.791,1.297-8.01,1.693c-2.998,5.383,2.176,12.994,7.656,21.05c5.446,8.011,11.619,17.088,11.062,25.878
					c-0.609,9.599-6.391,18.926-11.492,27.155c-5.741,9.261-10.698,17.26-7.114,23.118c0.39,0.632,2.438,2.107,12.993,2.107
					c4.785,0,9.057-0.318,9.099-0.322c25.483-1.137,40.684-20.087,40.684-50.691c0-28.809-18.553-43.537-34.441-47.395
					C53.488,30.678,45.107,29.375,38.371,29.375z"/>
			</g>
			<g>
				<linearGradient id="SVGID_11_" gradientUnits="userSpaceOnUse" x1="30.6455" y1="79.9268" x2="91.3003" y2="79.9268">
					<stop  offset="0" style="stop-color:#FD0039"/>
					<stop  offset="0.3255" style="stop-color:#6C3A7F"/>
					<stop  offset="0.5789" style="stop-color:#0066B3"/>
					<stop  offset="1" style="stop-color:#00C2F6"/>
				</linearGradient>
				<path fill="url(#SVGID_11_)" d="M43.667,129.127c-9.015,0-10.824-1.252-11.4-2.196c-3.943-6.474-0.016-14.685,4.532-24.192
					c3.574-7.472,7.627-15.941,8.27-24.766c0.557-7.625-3.613-15.543-7.647-23.197c-4.379-8.313-8.515-16.165-5.187-22.118
					c0.265-0.477,1.072-1.931,7.551-1.931c6.197,0,15.125,1.359,21.228,3.233C74.984,38.249,91.3,52.71,91.3,79.35
					c0,29.619-14.269,48.09-38.168,49.406C53.104,128.76,48.467,129.127,43.667,129.127z M39.786,32.179
					c-4.151,0-5.979,0.64-6.282,1.186c-2.944,5.267,1.012,12.78,5.202,20.733c3.938,7.473,8.398,15.942,7.813,23.98
					c-0.664,9.099-4.779,17.699-8.408,25.288c-4.366,9.126-8.137,17.009-4.603,22.808c0.214,0.353,1.583,1.5,10.16,1.5
					c4.739,0,9.321-0.363,9.367-0.367c23.058-1.271,36.813-19.197,36.813-47.957c0-34.035-26.268-43.082-29.263-44.002
					C54.604,33.512,45.856,32.179,39.786,32.179z"/>
			</g>
			<g>
				<linearGradient id="SVGID_12_" gradientUnits="userSpaceOnUse" x1="33.3398" y1="79.8789" x2="87.8999" y2="79.8789">
					<stop  offset="0" style="stop-color:#FD0039"/>
					<stop  offset="0.3255" style="stop-color:#6C3A7F"/>
					<stop  offset="0.5789" style="stop-color:#0066B3"/>
					<stop  offset="1" style="stop-color:#00C2F6"/>
				</linearGradient>
				<path fill="url(#SVGID_12_)" d="M43.796,126.447c-6.628,0-8.015-0.815-8.498-1.613c-3.947-6.51-1.216-14.904,1.943-24.622
					c2.156-6.63,4.6-14.144,5.267-22.173c0.575-6.883-2.046-14.154-4.58-21.186c-2.983-8.285-5.806-16.11-2.553-21.904
					c0.611-1.088,2.986-1.638,7.058-1.638c5.887,0,14.508,1.261,20.495,4.079C79.265,45.072,87.9,59.576,87.9,79.336
					c0,28.189-12.496,45.201-34.283,46.674C53.579,126.014,48.489,126.447,43.796,126.447z M42.433,34.764
					c-4.269,0-5.645,0.666-5.792,0.898c-2.926,5.214-0.216,12.736,2.654,20.699c2.587,7.178,5.262,14.6,4.662,21.799
					c-0.683,8.195-3.154,15.796-5.335,22.5c-3.05,9.379-5.683,17.479-2.082,23.421c0.024,0.038,0.675,0.913,7.256,0.913
					c4.628,0,9.658-0.428,9.709-0.433c20.939-1.417,32.942-17.899,32.942-45.226c0-19.156-8.348-33.207-24.136-40.633
					C56.525,35.981,48.16,34.764,42.433,34.764z"/>
			</g>
		</g>
	</g>
	<g>
		<g>
			<path fill="#0066B3" d="M143.854,15.559h12.235c4.414,0,7.82,1.199,10.22,3.599c2.398,2.398,3.598,5.981,3.598,10.747v4.366
				c0,4.767-1.207,8.356-3.622,10.771s-5.846,3.622-10.292,3.622h-12.139V15.559z M156.089,44.777c3.198,0,5.573-0.847,7.125-2.543
				c1.551-1.694,2.326-4.317,2.326-7.868v-4.222c0-3.646-0.775-6.341-2.326-8.085c-1.552-1.743-3.927-2.615-7.125-2.615h-7.869
				v25.333H156.089z"/>
			<path fill="#0066B3" d="M179.886,15.559h4.366v33.105h-4.366V15.559z"/>
			<path fill="#0066B3" d="M197.95,45.426c-2.415-2.447-3.622-6.085-3.622-10.916v-4.846c0-4.829,1.207-8.468,3.622-10.915
				s5.846-3.67,10.292-3.67c3.966,0,7.108,0.943,9.428,2.83c2.318,1.888,3.479,4.446,3.479,7.677v0.24h-4.318v-0.192
				c0-2.046-0.752-3.662-2.255-4.846c-1.504-1.183-3.615-1.775-6.333-1.775c-3.231,0-5.63,0.881-7.197,2.639
				c-1.567,1.76-2.351,4.511-2.351,8.253v4.654c0,3.614,0.792,6.285,2.375,8.012c1.583,1.728,3.989,2.591,7.221,2.591
				c5.726,0,8.588-2.702,8.588-8.108v-1.967h-9.164v-3.694h13.482v5.374c0,4.03-1.151,7.093-3.454,9.188
				c-2.304,2.096-5.47,3.143-9.5,3.143C203.795,49.096,200.365,47.872,197.95,45.426z"/>
			<path fill="#0066B3" d="M231.174,15.559h4.366v33.105h-4.366V15.559z"/>
			<path fill="#0066B3" d="M268.743,19.444h-10.699v29.22h-4.318v-29.22h-10.699v-3.886h25.717V19.444z"/>
			<path fill="#0066B3" d="M296.473,41.18h-16.217l-2.975,7.484h-4.558l13.817-33.105h3.694l13.866,33.105h-4.605L296.473,41.18z
				 M294.986,37.485l-6.621-16.554l-6.621,16.554H294.986z"/>
			<path fill="#0066B3" d="M311.202,15.559h4.366v29.219h18.568v3.887h-22.935V15.559z"/>
		</g>
	</g>
</g>
</svg>
